<mxfile host="65bd71144e">
    <diagram id="O7CjS-ZHA4m0CmbWgkA1" name="Page-1">
        <mxGraphModel dx="1513" dy="807" grid="1" gridSize="10" guides="1" tooltips="1" connect="1" arrows="1" fold="1" page="1" pageScale="1" pageWidth="850" pageHeight="1100" math="0" shadow="0">
            <root>
                <mxCell id="0"/>
                <mxCell id="1" parent="0"/>
                <mxCell id="2" value="User" style="swimlane;whiteSpace=wrap;html=1;" parent="1" vertex="1">
                    <mxGeometry x="120" y="120" width="200" height="680" as="geometry"/>
                </mxCell>
                <mxCell id="3" value="" style="ellipse;html=1;shape=startState;fillColor=#000000;strokeColor=#ff0000;" parent="2" vertex="1">
                    <mxGeometry x="85" y="50" width="30" height="30" as="geometry"/>
                </mxCell>
                <mxCell id="4" value="Membuka halaman Contract" style="rounded=1;whiteSpace=wrap;html=1;" parent="2" vertex="1">
                    <mxGeometry x="40" y="110" width="120" height="60" as="geometry"/>
                </mxCell>
                <mxCell id="5" value="" style="edgeStyle=orthogonalEdgeStyle;html=1;verticalAlign=bottom;endArrow=open;endSize=8;strokeColor=#ff0000;entryX=0.5;entryY=0;entryDx=0;entryDy=0;" parent="2" source="3" target="4" edge="1">
                    <mxGeometry relative="1" as="geometry">
                        <mxPoint x="100" y="110" as="targetPoint"/>
                    </mxGeometry>
                </mxCell>
                <mxCell id="6" value="Tekan tombol pengaturan (detail contract) pada salah satu data yang&amp;nbsp;&lt;div&gt;ber-tipe (unit price)&lt;/div&gt;" style="rounded=1;whiteSpace=wrap;html=1;" parent="2" vertex="1">
                    <mxGeometry x="40" y="210" width="120" height="70" as="geometry"/>
                </mxCell>
                <mxCell id="7" value="Memilih tombol edit pada salah satu data progress pekerjaan" style="rounded=1;whiteSpace=wrap;html=1;" parent="2" vertex="1">
                    <mxGeometry x="40" y="320" width="120" height="60" as="geometry"/>
                </mxCell>
                <mxCell id="8" value="Mengubah isi formulir tambah data SPK" style="rounded=1;whiteSpace=wrap;html=1;" parent="2" vertex="1">
                    <mxGeometry x="40" y="420" width="120" height="60" as="geometry"/>
                </mxCell>
                <mxCell id="9" value="Sistem" style="swimlane;whiteSpace=wrap;html=1;" parent="1" vertex="1">
                    <mxGeometry x="320" y="120" width="200" height="680" as="geometry"/>
                </mxCell>
                <mxCell id="10" value="Menampilkan halaman Contract" style="rounded=1;whiteSpace=wrap;html=1;" parent="9" vertex="1">
                    <mxGeometry x="40" y="110" width="120" height="60" as="geometry"/>
                </mxCell>
                <mxCell id="11" value="Menampilkan detail contract beserta&amp;nbsp;&lt;div&gt;progress pekerjaan-nya&lt;/div&gt;" style="rounded=1;whiteSpace=wrap;html=1;" parent="9" vertex="1">
                    <mxGeometry x="40" y="215" width="120" height="60" as="geometry"/>
                </mxCell>
                <mxCell id="12" value="Menampilkan isi formulir edit data progress pekerjaan" style="rounded=1;whiteSpace=wrap;html=1;" parent="9" vertex="1">
                    <mxGeometry x="40" y="320" width="120" height="60" as="geometry"/>
                </mxCell>
                <mxCell id="13" style="edgeStyle=none;html=1;entryX=1;entryY=0.5;entryDx=0;entryDy=0;" parent="9" source="15" target="12" edge="1">
                    <mxGeometry relative="1" as="geometry">
                        <Array as="points">
                            <mxPoint x="180" y="450"/>
                            <mxPoint x="180" y="350"/>
                        </Array>
                    </mxGeometry>
                </mxCell>
                <mxCell id="14" value="" style="edgeStyle=none;html=1;" parent="9" source="15" target="17" edge="1">
                    <mxGeometry relative="1" as="geometry"/>
                </mxCell>
                <mxCell id="15" value="Validasi Data" style="rhombus;whiteSpace=wrap;html=1;rounded=1;" parent="9" vertex="1">
                    <mxGeometry x="50" y="415" width="110" height="70" as="geometry"/>
                </mxCell>
                <mxCell id="16" value="" style="edgeStyle=none;html=1;" parent="9" source="17" target="19" edge="1">
                    <mxGeometry relative="1" as="geometry"/>
                </mxCell>
                <mxCell id="17" value="Menyimpan perubahan data&amp;nbsp;&lt;div&gt;progress pekerjaan&lt;/div&gt;" style="rounded=1;whiteSpace=wrap;html=1;" parent="9" vertex="1">
                    <mxGeometry x="45" y="510" width="120" height="60" as="geometry"/>
                </mxCell>
                <mxCell id="18" value="Ya" style="text;html=1;align=center;verticalAlign=middle;resizable=0;points=[];autosize=1;strokeColor=none;fillColor=none;" parent="9" vertex="1">
                    <mxGeometry x="95" y="480" width="40" height="30" as="geometry"/>
                </mxCell>
                <mxCell id="19" value="" style="ellipse;html=1;shape=endState;fillColor=#000000;strokeColor=#ff0000;" parent="9" vertex="1">
                    <mxGeometry x="90" y="600" width="30" height="30" as="geometry"/>
                </mxCell>
                <mxCell id="20" value="" style="edgeStyle=none;html=1;" parent="1" source="4" target="10" edge="1">
                    <mxGeometry relative="1" as="geometry"/>
                </mxCell>
                <mxCell id="21" value="" style="edgeStyle=none;html=1;entryX=0.5;entryY=0;entryDx=0;entryDy=0;exitX=0.5;exitY=1;exitDx=0;exitDy=0;" parent="1" source="10" target="6" edge="1">
                    <mxGeometry relative="1" as="geometry">
                        <Array as="points">
                            <mxPoint x="420" y="310"/>
                            <mxPoint x="220" y="310"/>
                        </Array>
                    </mxGeometry>
                </mxCell>
                <mxCell id="22" value="" style="edgeStyle=none;html=1;" parent="1" source="6" target="11" edge="1">
                    <mxGeometry relative="1" as="geometry"/>
                </mxCell>
                <mxCell id="23" value="" style="edgeStyle=none;html=1;entryX=0.5;entryY=0;entryDx=0;entryDy=0;exitX=0.5;exitY=1;exitDx=0;exitDy=0;" parent="1" source="11" target="7" edge="1">
                    <mxGeometry relative="1" as="geometry">
                        <Array as="points">
                            <mxPoint x="420" y="420"/>
                            <mxPoint x="220" y="420"/>
                        </Array>
                    </mxGeometry>
                </mxCell>
                <mxCell id="24" value="" style="edgeStyle=none;html=1;" parent="1" source="7" target="12" edge="1">
                    <mxGeometry relative="1" as="geometry"/>
                </mxCell>
                <mxCell id="25" value="" style="edgeStyle=none;html=1;entryX=0.5;entryY=0;entryDx=0;entryDy=0;exitX=0.5;exitY=1;exitDx=0;exitDy=0;" parent="1" source="12" target="8" edge="1">
                    <mxGeometry relative="1" as="geometry">
                        <Array as="points">
                            <mxPoint x="420" y="520"/>
                            <mxPoint x="220" y="520"/>
                        </Array>
                    </mxGeometry>
                </mxCell>
                <mxCell id="26" value="" style="edgeStyle=none;html=1;" parent="1" source="8" target="15" edge="1">
                    <mxGeometry relative="1" as="geometry"/>
                </mxCell>
                <mxCell id="27" value="Tidak" style="text;html=1;align=center;verticalAlign=middle;resizable=0;points=[];autosize=1;strokeColor=none;fillColor=none;" parent="1" vertex="1">
                    <mxGeometry x="458" y="498" width="50" height="30" as="geometry"/>
                </mxCell>
            </root>
        </mxGraphModel>
    </diagram>
</mxfile>